<svg xmlns="http://www.w3.org/2000/svg" version="1.1" xmlns:xlink="http://www.w3.org/1999/xlink" xmlns:svgjs="http://svgjs.dev/svgjs" width="1440" height="250" preserveAspectRatio="none" viewBox="0 0 1440 250"><g mask="url(&quot;#SvgjsMask1063&quot;)" fill="none"><path d="M20 250L270 0L567 0L317 250z" fill="url(&quot;#SvgjsLinearGradient1064&quot;)"></path><path d="M258.6 250L508.6 0L759.1 0L509.1 250z" fill="url(&quot;#SvgjsLinearGradient1064&quot;)"></path><path d="M518.2 250L768.2 0L1120.7 0L870.7 250z" fill="url(&quot;#SvgjsLinearGradient1064&quot;)"></path><path d="M754.8000000000001 250L1004.8000000000001 0L1330.3000000000002 0L1080.3000000000002 250z" fill="url(&quot;#SvgjsLinearGradient1064&quot;)"></path><path d="M1421 250L1171 0L941.5 0L1191.5 250z" fill="url(&quot;#SvgjsLinearGradient1065&quot;)"></path><path d="M1190.4 250L940.4000000000001 0L896.9000000000001 0L1146.9 250z" fill="url(&quot;#SvgjsLinearGradient1065&quot;)"></path><path d="M942.8 250L692.8 0L497.79999999999995 0L747.8 250z" fill="url(&quot;#SvgjsLinearGradient1065&quot;)"></path><path d="M697.1999999999999 250L447.19999999999993 0L178.69999999999993 0L428.69999999999993 250z" fill="url(&quot;#SvgjsLinearGradient1065&quot;)"></path><path d="M1220.697497010788 250L1440 30.697497010788L1440 250z" fill="url(&quot;#SvgjsLinearGradient1064&quot;)"></path><path d="M0 250L219.302502989212 250L 0 30.697497010788z" fill="url(&quot;#SvgjsLinearGradient1065&quot;)"></path></g><defs><mask id="SvgjsMask1063"><rect width="1440" height="250" fill="#ffffff"></rect></mask><linearGradient x1="0%" y1="100%" x2="100%" y2="0%" id="SvgjsLinearGradient1064"><stop stop-color="rgba(9, 15, 59, 1)" offset="0"></stop><stop stop-opacity="0" stop-color="rgba(9, 15, 59, 1)" offset="0.66"></stop></linearGradient><linearGradient x1="100%" y1="100%" x2="0%" y2="0%" id="SvgjsLinearGradient1065"><stop stop-color="rgba(9, 15, 59, 1)" offset="0"></stop><stop stop-opacity="0" stop-color="rgba(9, 15, 59, 1)" offset="0.66"></stop></linearGradient></defs></svg>